<svg xmlns="http://www.w3.org/2000/svg" xmlns:xlink="http://www.w3.org/1999/xlink" viewBox="0 0 74.81 103.9"><defs><style>.cls-1{fill:url(#linear-gradient);}.cls-2{fill:url(#linear-gradient-2);}.cls-3{fill:url(#linear-gradient-3);}</style><linearGradient id="linear-gradient" x1="59.54" y1="42.7" x2="32.27" y2="-12.5" gradientUnits="userSpaceOnUse"><stop offset="0" stop-color="#fd0000"/><stop offset="0.24" stop-color="#fe3c01"/><stop offset="0.77" stop-color="#ffb904"/><stop offset="1" stop-color="#ffeb05"/></linearGradient><linearGradient id="linear-gradient-2" x1="64.74" y1="122.47" x2="-35.3" y2="-79.98" gradientUnits="userSpaceOnUse"><stop offset="0" stop-color="#fd0000"/><stop offset="0.46" stop-color="#fe7202"/><stop offset="1" stop-color="#ffff05"/></linearGradient><linearGradient id="linear-gradient-3" x1="62.35" y1="118.06" x2="20.19" y2="32.74" xlink:href="#linear-gradient"/></defs><title>Asset 1</title><g id="Layer_2" data-name="Layer 2"><g id="Layer_1-2" data-name="Layer 1"><path class="cls-1" d="M53.21,26.5A9.9,9.9,0,0,1,55,30.4a9.76,9.76,0,0,0-.6-9.5c-3.4-5.5-8.8-2.9-14.6-7.8C42.71,24.6,49,21,53.21,26.5Z"/><path class="cls-2" d="M10.52,85.29A4.47,4.47,0,0,1,15,80.82a4.42,4.42,0,0,1,2.65.88l9.27-8.84a4.54,4.54,0,0,1-.69-2.39,4.47,4.47,0,1,1,8.58,1.76l8.31,5.6a4.38,4.38,0,0,1,5.24-.59L58.24,65.4a4.46,4.46,0,0,1,7.13-5.35l8.14-3.75a38.53,38.53,0,0,0-9.8-17.2c.9,3,0,8.7-2.6,10.6a19.09,19.09,0,0,0-3.8-9.7c-8.6-11.1-15.7-10.3-23.9-17.1-5.9-4.1-10.8-10-12.9-22.9,0,0-6.8,7.6-9.8,14.2-3.7,9.3-4.5,21.5,1,30.5,5.7,9.3,7.9,25.4-1.6,25.3-6.1.2-8.3-5.1-7.2-10.4-.6,1.2-1.3,2.6-1.8,3.9-1.4,3.8-1.4,10.4-.4,14.2a38.38,38.38,0,0,0,5.1,10.1l4.79-1.74A3.94,3.94,0,0,1,10.52,85.29Z"/><path class="cls-3" d="M74.81,66a49,49,0,0,0-.8-7.7l-7.78,3.58a4.41,4.41,0,0,1,.09.89,4.48,4.48,0,0,1-4.48,4.47,4.43,4.43,0,0,1-2-.48L49.74,78.47a4.47,4.47,0,1,1-7.74.92l-8.33-5.61a4.4,4.4,0,0,1-5.53.36l-9.28,8.94a4.46,4.46,0,0,1-7.59,4.68L7,89.4a38.86,38.86,0,0,0,3.12,3.51V91.6h10V100a40.22,40.22,0,0,0,5.6,2.21V83.58h10v20.31h1.06a38,38,0,0,0,4.9-.32V90.44h10v10.33a35.18,35.18,0,0,0,5.82-3.15V75.55h10v12.7A37.71,37.71,0,0,0,74.81,66Z"/></g></g></svg>